<svg xmlns="http://www.w3.org/2000/svg" width="352" height="352" viewBox="0 0 352 352">
<g>
<path d="M 197.23,28.38 L 197.97,28.41 L 199.85,28.62 L 200.84,28.74 L 203.09,29.12 L 204.24,29.33 L 206.70,29.84 L 209.17,30.37 L 214.02,31.69 L 215.17,32.03 L 217.23,32.71 L 219.79,33.74 L 220.59,34.10 L 222.31,35.09 L 223.19,35.62 L 225.03,36.88 L 226.88,38.20 L 230.65,41.43 L 232.50,43.09 L 235.87,46.65 L 236.67,47.54 L 238.09,49.30 L 239.91,51.86 L 240.28,52.43 L 241.06,53.83 L 241.46,54.56 L 242.26,56.19 L 243.07,57.85 L 244.56,61.43 L 245.26,63.19 L 246.31,66.34 L 246.52,67.06 L 246.82,68.27 L 247.00,69.66 L 247.00,69.90 L 246.70,70.27 L 246.50,70.44 L 245.77,70.69 L 245.35,70.79 L 244.13,70.92 L 241.73,71.00 L 240.62,71.00 L 238.60,70.81 L 237.62,70.68 L 235.85,70.21 L 234.99,69.93 L 233.43,69.14 L 232.67,68.69 L 231.26,67.53 L 230.58,66.90 L 229.30,65.34 L 228.67,64.51 L 227.48,62.51 L 226.88,61.45 L 225.72,58.98 L 223.98,54.68 L 223.33,52.95 L 221.49,49.60 L 220.49,47.96 L 218.06,44.94 L 216.79,43.49 L 213.94,40.98 L 209.38,37.99 L 208.34,37.46 L 206.54,36.71 L 205.64,36.38 L 203.75,35.95 L 202.75,35.78 L 200.30,35.59 L 199.63,35.56 L 198.11,35.52 L 195.50,35.50 L 194.56,35.50 L 192.91,35.52 L 192.12,35.54 L 190.73,35.59 L 189.39,35.66 L 187.25,35.96 L 186.23,36.14 L 184.39,36.70 L 181.50,37.95 L 179.66,38.85 L 176.04,41.39 L 174.26,42.76 L 170.90,46.09 L 169.27,47.83 L 166.37,51.74 L 162.72,58.05 L 162.09,59.39 L 161.00,61.88 L 160.48,63.11 L 159.62,65.50 L 158.80,67.88 L 157.74,72.86 L 157.51,74.17 L 157.17,77.00 L 157.02,78.46 L 156.81,81.69 L 156.72,83.36 L 156.62,87.12 L 156.58,93.50 L 156.58,95.58 L 156.62,99.12 L 156.65,100.80 L 156.76,103.65 L 156.83,105.00 L 157.03,107.27 L 157.15,108.34 L 157.48,110.16 L 157.67,111.03 L 158.14,112.53 L 158.41,113.25 L 159.06,114.54 L 161.81,118.28 L 162.17,118.70 L 162.58,119.33 L 162.72,119.64 L 162.65,120.23 L 162.55,120.54 L 161.92,121.31 L 160.28,122.89 L 159.85,123.28 L 158.89,124.34 L 158.41,124.90 L 157.41,126.18 L 154.86,130.11 L 154.45,130.89 L 153.78,132.86 L 153.47,133.90 L 153.01,136.33 L 152.80,137.59 L 152.54,140.37 L 152.44,141.79 L 152.39,144.81 L 152.39,147.88 L 153.00,154.29 L 153.20,155.88 L 153.77,159.00 L 154.84,163.48 L 155.57,166.04 L 157.46,171.30 L 158.47,173.95 L 160.89,179.35 L 162.17,182.07 L 165.09,187.56 L 166.60,190.30 L 169.98,195.81 L 171.72,198.57 L 175.52,204.04 L 177.47,206.77 L 181.65,212.14 L 183.79,214.81 L 188.31,220.03 L 195.45,227.62 L 198.60,230.79 L 204.73,236.37 L 207.77,239.04 L 213.82,243.72 L 216.85,245.96 L 222.97,249.86 L 232.43,254.97 L 233.89,255.67 L 236.53,256.87 L 237.80,257.45 L 240.14,258.42 L 241.28,258.88 L 243.39,259.65 L 244.43,260.01 L 246.40,260.58 L 248.34,261.11 L 252.11,261.68 L 258.19,261.98 L 260.07,261.97 L 263.51,261.55 L 265.18,261.27 L 268.20,260.30 L 269.65,259.75 L 272.24,258.25 L 273.48,257.44 L 275.62,255.42 L 276.64,254.35 L 278.34,251.82 L 279.13,250.50 L 280.36,247.47 L 280.92,245.89 L 281.69,242.37 L 282.30,236.55 L 282.35,235.21 L 282.52,233.04 L 282.61,232.04 L 282.87,230.49 L 283.02,229.79 L 283.38,228.82 L 284.04,227.97 L 284.44,227.73 L 285.31,227.59 L 286.32,227.92 L 286.51,228.11 L 286.85,228.69 L 287.02,229.02 L 287.33,229.86 L 287.63,230.75 L 288.11,233.18 L 288.33,234.47 L 288.65,237.49 L 288.79,239.05 L 288.94,242.42 L 289.05,245.83 L 288.72,252.59 L 288.59,254.19 L 288.19,257.05 L 287.35,260.59 L 287.03,261.56 L 286.55,263.92 L 286.44,264.57 L 286.25,266.07 L 286.17,266.86 L 286.02,268.69 L 285.96,269.65 L 285.85,271.88 L 285.80,273.05 L 285.73,275.76 L 285.70,277.18 L 285.65,280.43 L 285.60,286.00 L 285.60,287.25 L 285.59,289.54 L 285.58,290.65 L 285.56,292.66 L 285.55,294.60 L 285.50,297.76 L 285.47,299.24 L 285.37,301.60 L 285.32,302.69 L 285.17,304.44 L 285.08,305.25 L 284.84,306.57 L 284.71,307.20 L 284.38,308.27 L 282.88,311.50 L 282.29,312.64 L 280.95,314.63 L 280.24,315.58 L 278.58,317.24 L 277.70,318.03 L 275.61,319.40 L 274.49,320.05 L 271.83,321.18 L 270.41,321.73 L 267.06,322.67 L 265.29,323.12 L 261.13,323.91 L 258.93,324.30 L 253.83,325.00 L 252.50,325.17 L 249.62,325.50 L 245.00,325.99 L 244.21,326.07 L 242.26,326.28 L 241.23,326.38 L 238.88,326.63 L 237.66,326.76 L 234.98,327.05 L 233.61,327.20 L 230.71,327.51 L 227.76,327.83 L 221.56,328.52 L 212.50,329.54 L 210.02,329.82 L 205.26,330.36 L 202.91,330.63 L 198.42,331.14 L 194.00,331.64 L 185.91,332.55 L 181.99,332.98 L 174.87,333.77 L 171.42,334.15 L 165.18,334.82 L 162.16,335.14 L 156.74,335.70 L 154.12,335.96 L 149.44,336.42 L 147.19,336.63 L 143.18,336.98 L 141.25,337.15 L 137.83,337.41 L 136.20,337.52 L 133.31,337.69 L 131.93,337.76 L 129.50,337.85 L 128.33,337.88 L 126.29,337.88 L 125.31,337.88 L 123.57,337.80 L 121.90,337.72 L 119.19,337.34 L 117.90,337.12 L 115.50,336.51 L 114.67,336.28 L 112.52,335.62 L 111.38,335.27 L 108.69,334.37 L 107.28,333.90 L 104.13,332.80 L 102.51,332.23 L 99.00,330.97 L 95.41,329.66 L 87.56,326.70 L 75.50,321.98 L 73.71,321.26 L 70.15,319.84 L 68.40,319.14 L 65.18,317.88 L 63.65,317.28 L 61.16,316.31 L 60.60,316.09 L 59.67,315.74 L 58.63,315.34 L 56.88,314.70 L 53.98,313.46 L 52.62,312.82 L 50.46,311.45 L 49.46,310.73 L 47.99,309.05 L 47.33,308.15 L 46.48,305.98 L 46.13,304.82 L 45.85,301.97 L 45.81,301.20 L 45.84,299.52 L 45.87,298.65 L 46.02,296.73 L 46.11,295.74 L 46.38,293.57 L 46.53,292.45 L 46.90,290.00 L 47.11,288.74 L 47.59,285.99 L 48.42,281.50 L 48.60,280.54 L 49.03,278.32 L 49.25,277.17 L 49.73,274.64 L 50.22,272.06 L 51.31,266.32 L 51.87,263.42 L 52.98,257.59 L 54.53,249.50 L 55.39,244.97 L 57.23,235.31 L 58.16,230.43 L 60.05,220.42 L 61.00,215.42 L 62.85,205.57 L 63.77,200.72 L 65.49,191.54 L 65.91,189.31 L 66.70,185.06 L 67.09,182.98 L 67.82,179.07 L 68.17,177.16 L 68.82,173.66 L 69.14,171.96 L 69.70,168.92 L 69.96,167.47 L 70.42,164.96 L 70.64,163.78 L 70.99,161.86 L 71.14,160.98 L 71.36,159.73 L 71.54,158.65 L 71.65,157.82 L 71.95,156.37 L 72.11,155.68 L 72.50,154.50 L 72.70,153.94 L 73.17,153.03 L 73.41,152.61 L 73.94,151.98 L 74.22,151.70 L 74.81,151.37 L 75.11,151.25 L 75.74,151.22 L 76.07,151.25 L 76.74,151.55 L 77.78,152.36 L 78.09,152.67 L 78.46,153.54 L 78.53,153.81 L 78.60,154.48 L 78.62,154.85 L 78.60,155.78 L 78.57,156.29 L 78.46,157.55 L 78.38,158.23 L 78.17,159.88 L 78.04,160.76 L 77.72,162.88 L 77.12,166.64 L 76.69,169.33 L 75.78,174.98 L 75.33,177.85 L 74.39,183.79 L 73.45,189.79 L 71.55,202.26 L 70.60,208.51 L 68.74,220.96 L 67.83,227.11 L 66.13,238.82 L 65.72,241.66 L 64.95,247.09 L 64.57,249.76 L 63.87,254.75 L 63.53,257.19 L 62.92,261.66 L 62.63,263.82 L 62.12,267.68 L 61.88,269.53 L 61.48,272.68 L 61.30,274.17 L 61.03,276.53 L 60.92,277.60 L 60.79,279.08 L 60.76,280.21 L 60.86,280.59 L 61.20,281.16 L 61.40,281.41 L 61.94,281.72 L 62.24,281.83 L 63.02,281.86 L 63.44,281.84 L 64.48,281.58 L 65.04,281.41 L 66.37,280.86 L 67.07,280.55 L 68.72,279.69 L 69.59,279.23 L 71.59,278.06 L 75.00,275.96 L 76.22,275.18 L 78.37,273.89 L 79.40,273.28 L 81.19,272.31 L 82.05,271.86 L 83.51,271.21 L 84.20,270.92 L 85.36,270.57 L 85.90,270.44 L 86.77,270.40 L 87.17,270.42 L 87.79,270.68 L 88.07,270.85 L 88.45,271.41 L 88.79,272.56 L 88.83,272.80 L 88.50,273.58 L 88.27,274.02 L 87.44,275.17 L 86.96,275.79 L 85.67,277.27 L 84.97,278.05 L 83.26,279.83 L 82.35,280.75 L 80.25,282.78 L 79.16,283.83 L 76.71,286.07 L 75.45,287.22 L 72.69,289.65 L 68.25,293.45 L 67.39,294.17 L 66.15,295.85 L 65.61,296.70 L 65.06,298.46 L 64.88,299.32 L 65.07,300.90 L 66.25,302.79 L 66.34,302.86 L 66.80,303.11 L 67.07,303.25 L 67.87,303.61 L 68.31,303.80 L 69.39,304.26 L 69.96,304.50 L 71.27,305.03 L 72.64,305.59 L 75.87,306.85 L 77.54,307.50 L 81.07,308.83 L 82.84,309.50 L 86.29,310.76 L 87.96,311.37 L 90.93,312.41 L 91.62,312.65 L 92.85,313.07 L 93.43,313.26 L 94.40,313.57 L 94.85,313.70 L 95.51,313.89 L 96.11,314.00 L 96.29,314.00 L 96.54,313.78 L 96.66,313.64 L 96.78,313.15 L 96.83,312.87 L 96.82,312.13 L 96.65,310.75 L 96.61,310.53 L 96.52,309.52 L 96.48,308.92 L 96.38,307.24 L 96.33,306.32 L 96.23,304.05 L 96.18,302.85 L 96.08,300.08 L 96.03,298.64 L 95.92,295.46 L 95.87,293.83 L 95.77,290.32 L 95.51,279.00 L 95.49,278.02 L 95.44,275.74 L 95.42,274.55 L 95.36,271.87 L 95.33,270.48 L 95.27,267.44 L 95.24,265.88 L 95.17,262.50 L 95.13,260.78 L 95.06,257.10 L 95.02,255.23 L 94.94,251.30 L 94.85,247.30 L 94.67,238.65 L 94.58,234.24 L 94.38,224.97 L 94.29,220.28 L 94.08,210.64 L 93.46,181.66 L 93.38,177.65 L 93.22,170.29 L 93.15,166.73 L 93.01,160.23 L 92.95,157.09 L 92.84,151.40 L 92.78,148.65 L 92.69,143.70 L 92.65,141.31 L 92.58,137.06 L 92.55,135.01 L 92.51,131.38 L 92.49,129.65 L 92.47,126.60 L 92.46,125.14 L 92.46,122.61 L 92.47,121.40 L 92.49,119.33 L 92.50,118.35 L 92.55,116.69 L 92.58,115.90 L 92.65,114.59 L 92.69,113.97 L 92.78,112.95 L 92.88,111.99 L 93.16,110.70 L 93.67,109.28 L 93.98,108.63 L 94.72,107.49 L 95.13,106.95 L 96.13,105.99 L 96.67,105.53 L 98.01,104.72 L 98.74,104.34 L 100.52,103.65 L 101.48,103.32 L 103.79,102.72 L 105.02,102.42 L 107.95,101.88 L 109.50,101.61 L 113.14,101.09 L 119.50,100.30 L 135.50,98.47 L 136.67,88.47 L 136.94,86.18 L 137.65,81.84 L 138.03,79.72 L 138.99,75.69 L 139.50,73.71 L 140.71,69.96 L 141.36,68.12 L 142.85,64.61 L 143.63,62.88 L 145.42,59.58 L 146.35,57.95 L 148.45,54.82 L 149.54,53.27 L 151.96,50.27 L 155.97,45.89 L 157.10,44.75 L 159.29,42.70 L 160.38,41.71 L 162.51,39.97 L 164.65,38.29 L 168.99,35.69 L 171.22,34.50 L 176.11,32.70 L 177.39,32.28 L 180.12,31.56 L 184.56,30.61 L 185.79,30.37 L 188.19,29.92 L 189.36,29.69 L 191.46,29.28 L 192.45,29.09 L 194.02,28.78 L 195.50,28.47 L 195.90,28.38 M 226.51,182.67 L 226.75,182.91 L 227.22,183.58 L 227.45,183.95 L 227.90,184.92 L 228.12,185.44 L 228.56,186.74 L 228.78,187.44 L 229.23,189.09 L 229.45,189.96 L 229.92,192.00 L 230.65,195.53 L 230.90,196.83 L 231.43,199.04 L 231.69,200.08 L 232.20,201.71 L 232.45,202.44 L 232.92,203.41 L 233.55,204.00 L 233.72,204.00 L 234.38,203.80 L 234.75,203.68 L 235.71,203.27 L 239.15,201.51 L 240.61,200.68 L 243.57,199.64 L 245.05,199.22 L 248.02,198.97 L 249.50,198.95 L 252.40,199.48 L 253.85,199.83 L 256.64,201.09 L 258.01,201.81 L 260.61,203.77 L 261.89,204.84 L 264.25,207.47 L 265.39,208.87 L 267.44,212.14 L 270.10,217.72 L 270.49,218.73 L 271.14,221.05 L 271.45,222.24 L 271.91,224.83 L 272.33,227.46 L 272.59,232.97 L 272.61,234.33 L 272.49,236.93 L 272.41,238.21 L 272.11,240.56 L 271.93,241.69 L 271.43,243.64 L 270.45,246.00 L 270.01,246.75 L 268.92,248.06 L 268.34,248.69 L 266.98,249.75 L 266.27,250.25 L 264.67,251.05 L 263.85,251.42 L 262.04,251.96 L 261.11,252.19 L 259.11,252.46 L 258.09,252.56 L 255.94,252.55 L 254.84,252.51 L 252.56,252.21 L 251.40,252.03 L 249.00,251.44 L 247.98,251.16 L 245.76,250.41 L 244.62,250.01 L 242.22,249.04 L 239.78,248.02 L 234.59,245.44 L 231.99,244.09 L 226.84,241.02 L 219.67,236.14 L 217.38,234.42 L 212.42,230.29 L 209.96,228.18 L 205.40,223.97 L 204.33,222.96 L 202.44,221.09 L 201.55,220.18 L 200.10,218.61 L 199.44,217.88 L 198.56,216.73 L 198.00,215.61 L 198.00,215.37 L 198.30,214.64 L 198.50,214.24 L 199.12,213.28 L 199.82,212.27 L 201.85,209.92 L 202.92,208.75 L 205.20,206.60 L 205.76,206.11 L 206.81,205.29 L 208.21,204.39 L 209.08,203.94 L 211.32,203.34 L 212.48,203.09 L 215.05,202.90 L 216.34,202.86 L 218.89,203.09 L 222.32,203.92 L 223.09,204.22 L 224.76,204.68 L 226.67,205.00 L 226.94,205.00 L 227.32,204.83 L 227.49,204.71 L 227.67,204.30 L 227.74,204.06 L 227.73,203.39 L 227.70,203.03 L 227.49,202.10 L 227.36,201.60 L 226.95,200.40 L 226.71,199.76 L 226.09,198.27 L 225.76,197.49 L 224.93,195.70 L 223.44,192.67 L 222.97,191.73 L 222.11,189.99 L 221.69,189.16 L 221.01,187.74 L 220.70,187.09 L 220.27,186.17 L 220.00,185.49 L 220.00,185.22 L 220.56,184.49 L 220.90,184.12 L 221.89,183.34 L 222.41,182.97 L 223.51,182.39 L 224.91,182.00 L 225.49,182.00 M 252.39,210.00 L 251.33,210.25 L 250.83,210.41 L 249.98,210.96 L 249.59,211.26 L 248.97,212.05 L 248.69,212.48 L 248.31,213.47 L 248.16,213.99 L 248.03,215.15 L 248.01,215.74 L 248.16,217.01 L 248.26,217.65 L 248.69,218.99 L 249.67,221.02 L 250.07,221.69 L 250.96,222.82 L 251.42,223.35 L 252.41,224.20 L 252.92,224.59 L 253.96,225.14 L 254.49,225.38 L 255.54,225.63 L 256.07,225.72 L 257.09,225.66 L 257.59,225.59 L 258.54,225.22 L 259.00,224.99 L 259.83,224.30 L 260.23,223.91 L 260.89,222.89 L 261.20,222.35 L 261.58,221.45 L 261.74,221.01 L 261.84,220.19 L 261.86,219.78 L 261.68,218.88 L 261.10,217.24 L 260.62,216.08 L 259.48,214.15 L 258.89,213.26 L 257.55,211.88 L 256.87,211.27 L 255.37,210.48 L 253.00,210.00 M 284.23,200.24 L 285.69,200.39 L 288.49,201.17 L 289.86,201.63 L 292.40,202.97 L 293.63,203.70 L 295.82,205.51 L 296.87,206.47 L 298.61,208.68 L 299.42,209.82 L 300.64,212.33 L 301.17,213.61 L 301.76,216.34 L 301.83,220.59 L 301.73,221.46 L 301.27,222.61 L 301.12,222.85 L 300.66,223.19 L 300.40,223.35 L 299.69,223.52 L 299.30,223.59 L 298.28,223.61 L 297.72,223.60 L 296.33,223.47 L 295.57,223.39 L 293.73,223.12 L 292.75,222.97 L 290.41,222.58 L 288.75,222.30 L 285.89,221.70 L 284.53,221.39 L 282.24,220.70 L 281.16,220.34 L 279.38,219.52 L 278.55,219.09 L 277.22,218.08 L 276.61,217.55 L 275.69,216.31 L 275.27,215.65 L 274.70,214.13 L 274.45,213.33 L 274.17,211.49 L 274.02,208.30 L 274.02,207.52 L 274.07,206.20 L 274.10,205.58 L 274.23,204.53 L 274.39,203.54 L 275.05,202.23 L 275.46,201.65 L 276.79,200.96 L 279.75,200.31 L 281.26,200.10 M 253.17,173.80 L 253.53,173.94 L 254.05,174.47 L 254.29,174.77 L 254.61,175.62 L 254.75,176.09 L 254.91,177.28 L 255.00,179.47 L 255.00,180.43 L 254.69,182.29 L 254.48,183.20 L 253.80,184.96 L 253.41,185.82 L 252.40,187.42 L 251.86,188.19 L 250.58,189.59 L 249.90,190.26 L 248.39,191.41 L 247.61,191.95 L 245.92,192.80 L 245.06,193.18 L 243.23,193.69 L 240.41,194.00 L 239.83,194.00 L 238.88,193.87 L 238.44,193.78 L 237.74,193.45 L 237.41,193.25 L 236.87,192.67 L 236.61,192.34 L 236.16,191.45 L 235.76,190.58 L 235.25,188.94 L 235.05,188.13 L 234.92,186.61 L 234.90,185.86 L 235.16,184.44 L 235.34,183.75 L 236.00,182.43 L 236.38,181.78 L 237.44,180.55 L 238.02,179.95 L 239.48,178.79 L 240.27,178.22 L 242.15,177.14 L 245.44,175.56 L 246.42,175.14 L 248.11,174.50 L 248.91,174.21 L 250.26,173.84 L 250.89,173.69 L 251.93,173.60 L 252.41,173.59 M 297.00,180.46 L 296.73,182.35 L 296.54,183.28 L 295.92,184.98 L 295.57,185.80 L 294.64,187.29 L 294.13,188.00 L 292.89,189.25 L 292.24,189.85 L 290.74,190.84 L 289.96,191.31 L 288.21,192.02 L 287.30,192.34 L 285.33,192.75 L 282.15,193.00 L 280.98,193.00 L 279.36,192.93 L 278.64,192.87 L 277.73,192.59 L 277.34,192.41 L 276.88,191.80 L 276.67,191.43 L 276.38,190.36 L 276.29,190.00 L 276.19,189.05 L 276.16,188.56 L 276.17,187.44 L 276.61,184.11 L 276.88,183.00 L 278.02,181.18 L 278.69,180.33 L 280.72,179.00 L 281.29,178.69 L 282.61,178.16 L 283.31,177.90 L 284.90,177.47 L 285.73,177.26 L 287.60,176.92 L 290.75,176.49 L 297.00,175.80 M 191.67,92.07 L 191.89,92.95 L 191.99,93.50 L 192.13,95.20 L 192.18,96.15 L 192.21,98.51 L 192.14,102.62 L 192.07,104.49 L 192.06,107.53 L 192.08,108.93 L 192.24,111.02 L 192.34,111.94 L 192.68,113.08 L 192.87,113.53 L 193.39,113.72 L 193.68,113.70 L 194.39,112.94 L 194.77,112.44 L 195.67,110.73 L 196.15,109.75 L 197.26,107.09 L 199.15,102.03 L 199.49,101.07 L 200.14,99.39 L 200.46,98.60 L 201.06,97.27 L 201.35,96.65 L 201.88,95.67 L 202.14,95.23 L 202.60,94.63 L 202.82,94.38 L 203.19,94.17 L 203.36,94.11 L 203.63,94.30 L 203.75,94.44 L 203.90,95.05 L 204.00,96.43 L 204.00,96.74 L 203.89,98.01 L 203.82,98.73 L 203.59,100.65 L 203.47,101.67 L 203.15,104.03 L 202.99,105.24 L 202.62,107.83 L 202.24,110.43 L 201.45,115.38 L 201.26,116.53 L 200.92,118.50 L 200.47,120.75 L 200.33,121.39 L 199.95,122.20 L 199.72,122.54 L 198.86,122.77 L 198.59,122.79 L 197.90,122.73 L 197.52,122.69 L 196.57,122.49 L 196.06,122.38 L 194.80,122.06 L 194.12,121.88 L 192.50,121.43 L 191.12,121.05 L 188.31,120.44 L 187.65,120.31 L 186.52,120.14 L 185.25,120.02 L 184.63,120.01 L 183.67,119.64 L 183.01,118.75 L 183.02,118.55 L 183.11,117.91 L 183.16,117.56 L 183.36,116.65 L 183.57,115.69 L 184.24,113.15 L 184.61,111.80 L 185.50,108.75 L 185.96,107.20 L 186.97,104.00 L 187.47,102.41 L 188.47,99.42 L 188.96,97.98 L 189.85,95.54 L 190.05,94.98 L 190.43,94.03 L 190.61,93.58 L 190.92,92.89 L 191.07,92.58 L 191.30,92.19 L 191.53,92.00 M 202.02,68.91 L 203.77,69.14 L 206.94,70.03 L 207.67,70.29 L 208.93,70.89 L 210.40,71.90 L 211.17,72.63 L 212.57,74.44 L 213.24,75.38 L 214.35,77.44 L 214.86,78.48 L 215.56,80.55 L 216.00,83.38 L 216.00,84.27 L 216.66,85.68 L 216.88,86.00 L 217.51,86.59 L 218.75,87.39 L 219.53,87.79 L 221.26,89.07 L 222.13,89.76 L 223.86,91.43 L 224.70,92.29 L 226.19,94.09 L 227.88,96.68 L 228.09,97.09 L 228.41,98.18 L 228.56,98.77 L 228.76,100.14 L 228.94,101.58 L 228.95,104.90 L 228.90,106.57 L 228.47,109.78 L 228.34,110.54 L 227.99,111.92 L 227.36,113.66 L 226.88,114.67 L 225.38,116.68 L 224.57,117.65 L 222.68,119.36 L 221.71,120.14 L 219.76,121.27 L 217.16,122.00 L 216.56,122.00 L 215.63,121.84 L 215.24,121.73 L 215.00,121.44 L 215.00,121.36 L 215.24,120.93 L 215.39,120.68 L 215.88,119.95 L 217.99,117.16 L 218.72,116.25 L 219.85,114.31 L 220.36,113.32 L 221.05,111.28 L 221.34,110.25 L 221.61,108.19 L 221.69,107.16 L 221.54,105.15 L 221.41,104.16 L 220.85,102.29 L 220.52,101.37 L 219.57,99.71 L 219.04,98.91 L 217.70,97.54 L 215.26,95.88 L 213.96,95.23 L 212.09,94.12 L 211.26,93.57 L 210.18,92.47 L 209.72,91.91 L 209.24,90.60 L 208.97,88.13 L 208.96,87.14 L 208.72,85.52 L 208.55,84.75 L 207.92,83.43 L 207.54,82.78 L 206.41,81.58 L 204.03,79.70 L 203.39,79.26 L 202.02,78.65 L 201.33,78.39 L 199.90,78.14 L 199.18,78.05 L 197.74,78.12 L 197.01,78.20 L 195.60,78.59 L 194.90,78.83 L 193.56,79.52 L 192.90,79.90 L 191.69,80.88 L 191.11,81.40 L 190.07,82.65 L 188.77,84.80 L 188.49,85.39 L 187.90,86.24 L 187.58,86.61 L 186.70,87.13 L 186.20,87.35 L 184.76,87.66 L 181.65,88.02 L 180.36,88.13 L 178.46,88.41 L 177.59,88.57 L 176.24,89.07 L 175.59,89.37 L 174.42,90.25 L 172.47,92.19 L 171.49,93.25 L 170.03,95.57 L 169.38,96.75 L 168.58,99.21 L 168.27,100.44 L 168.18,102.91 L 168.86,106.48 L 169.23,107.52 L 169.69,109.10 L 169.87,109.81 L 169.93,110.80 L 169.91,111.23 L 169.57,111.72 L 168.60,112.00 L 168.34,112.00 L 167.77,111.71 L 167.48,111.52 L 166.86,110.90 L 166.23,110.21 L 164.96,108.09 L 164.35,106.96 L 163.31,104.34 L 162.33,100.38 L 162.14,99.02 L 162.31,96.29 L 162.47,94.93 L 163.27,92.28 L 163.73,90.98 L 165.05,88.53 L 165.76,87.35 L 167.50,85.21 L 168.41,84.20 L 170.46,82.49 L 171.52,81.71 L 173.80,80.54 L 174.95,80.04 L 177.34,79.53 L 180.94,79.64 L 181.53,79.76 L 182.41,79.86 L 182.81,79.89 L 183.35,79.79 L 183.59,79.72 L 183.85,79.42 L 184.00,78.70 L 184.00,78.41 L 184.22,77.69 L 184.37,77.31 L 184.84,76.46 L 185.36,75.60 L 186.94,73.74 L 187.78,72.82 L 189.69,71.19 L 192.45,69.51 L 193.04,69.27 L 194.44,68.95 L 195.17,68.82 L 196.80,68.68 L 198.46,68.59 Z" fill="rgba(79,179,20,1)"/>
<path d="M 182.80,197.75 L 181.44,195.93 L 178.78,191.90 L 177.47,189.84 L 174.99,185.47 L 173.77,183.26 L 171.53,178.74 L 170.44,176.48 L 168.52,171.99 L 167.61,169.77 L 166.09,165.50 L 165.38,163.42 L 164.34,159.56 L 163.88,157.70 L 163.39,154.44 L 163.30,153.67 L 163.25,152.28 L 163.36,150.42 L 163.56,148.95 L 164.43,145.54 L 164.92,143.81 L 166.21,140.30 L 166.89,138.59 L 168.38,135.53 L 168.75,134.82 L 169.50,133.58 L 170.61,132.06 L 171.59,130.89 L 174.05,129.09 L 175.34,128.28 L 178.27,127.19 L 179.78,126.73 L 183.00,126.31 L 184.62,126.18 L 187.92,126.41 L 189.56,126.61 L 192.75,127.47 L 194.32,127.98 L 197.20,129.45 L 198.59,130.26 L 200.97,132.31 L 203.77,136.02 L 204.32,137.04 L 205.06,138.69 L 205.37,139.51 L 205.71,141.22 L 205.84,142.14 L 205.87,144.52 L 205.86,145.19 L 205.80,146.74 L 205.66,149.50 L 205.51,152.03 L 204.69,157.40 L 204.21,160.07 L 202.91,165.08 L 202.56,166.28 L 201.83,168.45 L 201.45,169.49 L 200.68,171.29 L 200.29,172.13 L 199.51,173.45 L 198.37,174.77 L 198.03,175.02 L 197.20,175.38 L 196.75,175.54 L 195.62,175.72 L 195.02,175.79 L 193.54,175.79 L 190.85,175.61 L 189.74,175.50 L 188.04,175.41 L 187.26,175.39 L 186.10,175.49 L 185.57,175.57 L 184.79,175.89 L 183.89,176.63 L 183.46,177.15 L 183.34,178.13 L 183.40,178.60 L 184.22,179.45 L 184.74,179.86 L 186.45,180.56 L 189.96,181.38 L 191.04,181.55 L 192.90,182.10 L 193.31,182.24 L 193.93,182.53 L 194.46,182.94 L 194.55,183.08 L 194.35,184.04 L 194.20,184.61 L 193.61,186.23 L 193.28,187.10 L 192.43,189.14 L 191.98,190.19 L 190.98,192.39 L 190.47,193.48 L 189.44,195.58 L 188.93,196.59 L 187.99,198.33 L 187.54,199.14 L 186.81,200.27 L 186.07,201.00 L 185.96,201.00 L 185.56,200.74 L 185.33,200.58 L 184.77,200.05 L 184.18,199.46 M 184.50,157.57 L 184.50,157.18 L 183.95,156.43 L 183.60,156.06 L 182.50,155.38 L 181.89,155.04 L 180.42,154.46 L 179.65,154.19 L 178.00,153.75 L 177.17,153.56 L 175.54,153.32 L 174.74,153.23 L 173.31,153.23 L 172.64,153.26 L 171.60,153.55 L 170.70,154.34 L 170.50,154.87 L 170.53,155.84 L 170.62,156.31 L 171.23,157.14 L 171.61,157.54 L 172.77,158.21 L 175.12,159.02 L 176.52,159.36 L 178.95,159.68 L 180.09,159.78 L 181.91,159.64 L 182.73,159.51 L 183.82,158.92 L 184.26,158.58 M 265.67,185.33 L 265.57,185.24 L 265.41,184.73 L 265.33,184.43 L 265.20,183.58 L 265.00,180.30 L 265.00,179.04 L 264.62,176.44 L 264.37,175.15 L 263.54,172.62 L 263.07,171.38 L 261.87,169.11 L 259.73,166.21 L 259.40,165.86 L 258.19,164.90 L 257.50,164.38 L 255.73,163.17 L 254.78,162.55 L 252.63,161.20 L 251.53,160.52 L 249.20,159.15 L 248.02,158.47 L 245.70,157.18 L 244.56,156.56 L 242.44,155.47 L 241.42,154.96 L 239.69,154.17 L 237.75,153.47 L 237.08,153.30 L 236.20,153.16 L 235.81,153.14 L 235.38,153.44 L 235.20,153.66 L 235.06,154.58 L 235.00,156.87 L 235.00,157.68 L 235.11,158.95 L 235.19,159.54 L 235.50,160.46 L 235.69,160.89 L 236.27,161.60 L 237.50,162.59 L 237.96,162.90 L 238.69,163.46 L 239.01,163.74 L 239.46,164.26 L 239.65,164.52 L 239.82,165.00 L 239.87,165.24 L 239.76,165.68 L 239.67,165.90 L 239.27,166.32 L 239.04,166.53 L 238.36,166.92 L 237.99,167.12 L 237.02,167.50 L 235.25,168.06 L 234.60,168.24 L 232.96,168.74 L 232.11,169.01 L 230.24,169.63 L 224.87,171.57 L 224.09,171.87 L 222.58,172.36 L 221.85,172.59 L 220.54,172.90 L 219.92,173.03 L 218.95,173.14 L 218.04,173.03 L 217.86,172.92 L 217.66,172.27 L 217.58,171.89 L 217.58,170.70 L 217.60,170.03 L 217.81,168.30 L 217.93,167.37 L 218.34,165.11 L 218.57,163.91 L 219.18,161.12 L 219.51,159.66 L 220.32,156.35 L 220.75,154.63 L 221.76,150.80 L 223.50,144.50 L 224.74,140.10 L 227.27,131.81 L 228.54,127.76 L 231.12,120.17 L 232.42,116.46 L 235.05,109.58 L 236.37,106.23 L 239.04,100.08 L 240.38,97.09 L 243.09,91.68 L 244.45,89.07 L 247.18,84.41 L 248.55,82.18 L 251.31,78.30 L 255.45,73.36 L 256.17,72.61 L 257.38,71.37 L 257.95,70.78 L 258.93,69.84 L 259.39,69.40 L 260.21,68.72 L 260.60,68.40 L 261.31,67.93 L 262.01,67.51 L 263.42,67.15 L 266.08,67.00 L 267.17,67.00 L 269.11,67.34 L 270.05,67.57 L 271.70,68.39 L 272.50,68.87 L 273.89,70.22 L 274.56,70.97 L 275.71,72.89 L 276.26,73.92 L 277.18,76.45 L 277.62,77.79 L 278.35,80.97 L 278.69,82.64 L 279.24,86.50 L 279.89,93.12 L 280.07,95.55 L 280.27,100.50 L 280.35,103.00 L 280.33,108.13 L 280.30,110.72 L 280.06,116.07 L 279.91,118.78 L 279.44,124.43 L 279.18,127.29 L 278.48,133.28 L 278.10,136.33 L 277.15,142.73 L 276.65,145.98 L 275.46,152.85 L 273.40,163.73 L 273.13,165.07 L 272.64,167.54 L 272.39,168.73 L 271.94,170.92 L 271.50,173.05 L 270.74,176.51 L 270.38,178.13 L 269.73,180.66 L 269.43,181.82 L 268.87,183.52 L 268.60,184.28 L 268.09,185.26 L 267.83,185.67 L 267.33,186.03 L 267.08,186.15 L 266.54,186.01 L 266.27,185.88 M 264.81,142.75 L 264.50,138.50 L 254.50,132.84 L 253.12,132.06 L 250.49,130.63 L 249.21,129.95 L 246.96,128.81 L 245.90,128.29 L 244.29,127.57 L 243.94,127.42 L 243.40,127.22 L 242.87,127.09 L 242.41,127.06 L 241.66,127.64 L 241.32,128.01 L 240.86,129.17 L 240.68,129.80 L 240.61,131.27 L 241.01,133.52 L 241.05,133.63 L 241.34,133.97 L 241.52,134.16 L 242.07,134.62 L 242.67,135.11 L 244.48,136.39 L 245.47,137.06 L 247.83,138.57 L 249.05,139.34 L 251.69,140.92 L 253.01,141.70 L 255.64,143.18 L 256.92,143.89 L 259.26,145.11 L 260.36,145.67 L 262.12,146.46 L 262.51,146.62 L 263.14,146.84 L 263.81,146.97 L 264.04,146.98 L 264.38,146.74 L 264.54,146.58 L 264.73,145.99 L 264.82,145.65 L 264.87,144.68 L 264.88,144.14 M 270.98,117.75 L 270.98,116.86 L 270.76,115.16 L 270.69,114.77 L 270.52,114.14 L 270.23,113.50 L 270.01,113.20 L 268.89,112.27 L 268.24,111.76 L 266.43,110.53 L 265.46,109.89 L 263.20,108.48 L 262.04,107.78 L 259.59,106.35 L 258.35,105.64 L 255.94,104.32 L 254.75,103.69 L 252.62,102.61 L 251.61,102.12 L 250.00,101.44 L 248.43,101.00 L 248.01,101.00 L 247.31,101.76 L 247.00,102.24 L 246.60,103.61 L 246.45,104.34 L 246.44,105.89 L 246.96,107.93 L 247.03,108.05 L 247.36,108.39 L 247.56,108.57 L 248.13,109.03 L 248.77,109.51 L 250.61,110.75 L 251.61,111.41 L 253.99,112.87 L 255.21,113.61 L 257.84,115.13 L 259.16,115.89 L 261.76,117.31 L 263.03,118.00 L 265.32,119.17 L 266.41,119.71 L 268.13,120.47 L 268.51,120.62 L 269.11,120.83 L 269.75,120.97 L 269.94,120.97 L 270.26,120.75 L 270.41,120.60 L 270.65,120.10 L 270.87,119.54 Z" fill="#ed9121"/>
</g>
</svg>